<svg width="141" height="40" viewBox="0 0 141 40" fill="none" xmlns="http://www.w3.org/2000/svg">
<path d="M14.2208 4.98869C15.6455 4.48917 17.2113 5.16285 17.7174 6.49273C18.1048 7.51091 17.7581 8.61769 16.9363 9.30529L17.3804 10.5163L18.0869 11.3316C18.2482 11.5182 18.4928 11.6074 18.738 11.5772C19.3991 11.4959 20.056 11.4928 20.6993 11.5604C20.9173 11.5836 21.1342 11.5116 21.2907 11.3595L21.8005 10.8661L22.1764 9.77185C21.8566 9.33293 21.7483 8.75165 21.9379 8.19933C22.2597 7.26306 23.3107 6.77916 24.2454 7.16256C25.0506 7.49245 25.4887 8.38808 25.253 9.22153C25.1032 9.75239 24.7241 10.15 24.2576 10.3468L23.8415 11.5594L23.9364 12.2276C23.969 12.4573 24.1054 12.6579 24.3047 12.7782C24.9746 13.1847 25.5899 13.6817 26.1301 14.2562C26.3116 14.4496 26.5824 14.5325 26.8427 14.4801L28.1825 14.2111L29.6961 13.3717C29.7039 12.6274 30.1017 11.9079 30.8019 11.5195C31.8606 10.9326 33.2014 11.327 33.7655 12.4024C34.2748 13.3725 33.9551 14.592 33.0327 15.1892C32.3124 15.6547 31.4335 15.6377 30.7551 15.2402L29.2325 16.084L28.3823 16.9871C28.1541 17.2294 28.0728 17.572 28.1599 17.8928C28.1604 17.8947 28.1607 17.896 28.1612 17.8979C28.3102 18.4507 28.4006 19.0063 28.438 19.557C28.4597 19.8851 28.6454 20.1803 28.9362 20.3371L30.0459 20.9353L32.2454 21.35C32.6331 21.0124 33.1672 20.8491 33.713 20.9515C34.6915 21.1363 35.3215 22.1048 35.0708 23.0797C34.8551 23.9145 34.0325 24.4703 33.1723 24.3609C32.5857 24.2863 32.1121 23.9338 31.8578 23.4598L29.6441 23.0427L28.2787 23.2089C28.027 23.24 27.8072 23.3975 27.7046 23.628C27.296 24.5379 26.7323 25.3748 26.0363 26.0973C25.8634 26.2768 25.7985 26.5338 25.8613 26.7744L26.2006 28.0843L27.0384 29.3942C27.9599 29.2563 28.9188 29.6536 29.4508 30.4856C30.1659 31.6034 29.8415 33.0834 28.7285 33.8046C27.6161 34.5257 26.1023 34.2119 25.3732 33.1081C24.8627 32.3353 24.8571 31.382 25.2709 30.6257L24.3815 29.2354L23.288 28.3384C23.1261 28.2048 22.9054 28.1695 22.7078 28.2397C22.4885 28.3178 22.2649 28.3876 22.0362 28.4485C20.7935 28.7796 19.5406 28.8223 18.3489 28.6198C18.1742 28.5905 17.9955 28.6402 17.8619 28.7557L17.2751 29.2642L16.8386 30.336C17.1339 30.7923 17.2093 31.3783 16.9894 31.919C16.6156 32.8366 15.5392 33.2616 14.6276 32.8274C13.8425 32.4535 13.4548 31.535 13.7366 30.7157C13.916 30.1939 14.3158 29.8178 14.7928 29.6473L15.2763 28.4594L15.1865 27.4161C14.3146 26.8717 13.5388 26.1731 12.9044 25.3474L11.4132 25.4942L10.0175 26.1823C10.0266 27.1158 9.54482 28.0039 8.69918 28.4338C7.50426 29.0407 6.03648 28.5034 5.42117 27.2331C4.80604 25.9634 5.27521 24.4421 6.47012 23.8352C7.36433 23.3809 8.41073 23.5673 9.13879 24.2224L10.455 23.573L11.3685 22.5962C11.4282 22.5323 11.4503 22.4424 11.4276 22.3584L11.4273 22.3571C11.0051 20.7902 11.0482 19.2063 11.4718 17.7506C11.4945 17.6707 11.4774 17.5846 11.4235 17.521L10.6355 16.5826L8.93758 15.6942C8.46992 15.8994 7.9155 15.8988 7.42793 15.6434C6.54711 15.182 6.22972 14.0748 6.75476 13.2157C7.2157 12.4624 8.19747 12.1764 8.99469 12.5626C9.51073 12.8124 9.84362 13.2797 9.94203 13.7966L11.6399 14.6849L12.8484 14.7983C12.9323 14.8064 13.0141 14.7711 13.0674 14.7061C13.6155 14.0312 14.268 13.4354 15.0092 12.9467C15.2126 12.8119 15.339 12.5886 15.3422 12.3453L15.3547 11.2518L14.881 9.96133C13.8541 9.88759 12.9251 9.26768 12.557 8.30058C12.0509 6.97071 12.7959 5.48757 14.2208 4.98869Z" fill="#EC5863"/>
<path d="M25.9898 18.4765C25.0729 15.0737 21.5559 13.0542 18.1342 13.966C14.7125 14.8778 12.6819 18.3756 13.5988 21.7785C14.5156 25.1813 18.0327 27.2008 21.4543 26.289C24.876 25.3772 26.9066 21.8794 25.9898 18.4765Z" fill="#F58A97"/>
<path d="M20.9484 24.4109C17.8476 25.2372 14.6687 23.6565 13.4173 20.8204C13.4527 21.1391 13.5128 21.4592 13.5988 21.7785C14.5156 25.1814 18.0326 27.2008 21.4543 26.289C24.8761 25.3771 26.9066 21.8795 25.9898 18.4765C25.9037 18.1573 25.7949 17.8502 25.6653 17.5566C26.0073 20.635 24.049 23.5847 20.9484 24.4109Z" fill="#F07281"/>
<path d="M11.324 33.496C11.0629 32.5269 10.0614 31.9518 9.08698 32.2115C8.11258 32.4711 7.53433 33.4672 7.79542 34.4362C8.05651 35.4053 9.05807 35.9804 10.0325 35.7207C11.0069 35.4611 11.5851 34.465 11.324 33.496Z" fill="#EB5569"/>
<path d="M34.1106 27.9379C33.9381 27.2979 33.2766 26.918 32.633 27.0895C31.9894 27.261 31.6074 27.9189 31.7799 28.559C31.9523 29.1991 32.6139 29.5789 33.2575 29.4074C33.9011 29.2359 34.283 28.578 34.1106 27.9379Z" fill="#EB5569"/>
<path d="M30.8429 6.00213C30.5889 5.05936 29.6145 4.49988 28.6665 4.75249C27.7185 5.0051 27.1559 5.97416 27.4099 6.91693C27.6639 7.8597 28.6383 8.41918 29.5863 8.16656C30.5343 7.91395 31.0969 6.9449 30.8429 6.00213Z" fill="#EB5569"/>
<path d="M20.1955 22.0477C19.9587 21.1687 19.0502 20.6471 18.1664 20.8826C17.2826 21.1181 16.7581 22.0216 16.9949 22.9005C17.2318 23.7795 18.1402 24.3011 19.024 24.0656C19.9078 23.8301 20.4323 22.9266 20.1955 22.0477Z" fill="#EB5569"/>
<path d="M24.3108 19.5818C24.1496 18.9835 23.5313 18.6285 22.9297 18.7888C22.3281 18.9491 21.9711 19.564 22.1323 20.1623C22.2935 20.7606 22.9119 21.1156 23.5134 20.9553C24.115 20.795 24.472 20.18 24.3108 19.5818Z" fill="#EB5569"/>
<path d="M19.9578 17.0961C19.8224 16.5937 19.3032 16.2956 18.7981 16.4302C18.2929 16.5648 17.9931 17.0812 18.1285 17.5835C18.2639 18.0859 18.7831 18.384 19.2882 18.2494C19.7934 18.1148 20.0932 17.5984 19.9578 17.0961Z" fill="#EB5569"/>
<path d="M51.683 19.18C50.543 19.18 49.559 18.994 48.731 18.622C47.915 18.238 47.279 17.686 46.823 16.966C46.379 16.234 46.133 15.346 46.085 14.302C46.073 13.786 46.067 13.24 46.067 12.664C46.067 12.076 46.073 11.518 46.085 10.99C46.133 9.97 46.385 9.106 46.841 8.398C47.297 7.69 47.939 7.15 48.767 6.778C49.595 6.406 50.567 6.22 51.683 6.22C52.583 6.22 53.381 6.334 54.077 6.562C54.773 6.778 55.355 7.072 55.823 7.444C56.303 7.816 56.663 8.224 56.903 8.668C57.155 9.112 57.287 9.55 57.299 9.982C57.311 10.09 57.275 10.18 57.191 10.252C57.119 10.324 57.029 10.36 56.921 10.36H54.293C54.161 10.36 54.059 10.342 53.987 10.306C53.927 10.258 53.873 10.192 53.825 10.108C53.741 9.928 53.615 9.742 53.447 9.55C53.291 9.346 53.069 9.172 52.781 9.028C52.505 8.884 52.139 8.812 51.683 8.812C50.999 8.812 50.459 8.992 50.063 9.352C49.679 9.712 49.469 10.288 49.433 11.08C49.397 12.112 49.397 13.156 49.433 14.212C49.469 15.052 49.691 15.658 50.099 16.03C50.507 16.402 51.047 16.588 51.719 16.588C52.175 16.588 52.577 16.51 52.925 16.354C53.285 16.198 53.567 15.958 53.771 15.634C53.975 15.298 54.077 14.872 54.077 14.356V14.014H52.385C52.253 14.014 52.139 13.972 52.043 13.888C51.959 13.792 51.917 13.678 51.917 13.546V12.214C51.917 12.082 51.959 11.974 52.043 11.89C52.139 11.794 52.253 11.746 52.385 11.746H56.921C57.053 11.746 57.161 11.794 57.245 11.89C57.329 11.974 57.371 12.082 57.371 12.214V14.266C57.371 15.298 57.137 16.18 56.669 16.912C56.201 17.644 55.535 18.208 54.671 18.604C53.819 18.988 52.823 19.18 51.683 19.18ZM63.6661 19.18C62.6581 19.18 61.8061 19.018 61.1101 18.694C60.4261 18.37 59.8981 17.908 59.5261 17.308C59.1661 16.696 58.9621 15.97 58.9141 15.13C58.9021 14.89 58.8961 14.62 58.8961 14.32C58.8961 14.008 58.9021 13.738 58.9141 13.51C58.9621 12.658 59.1781 11.932 59.5621 11.332C59.9461 10.732 60.4801 10.27 61.1641 9.946C61.8601 9.622 62.6941 9.46 63.6661 9.46C64.6501 9.46 65.4841 9.622 66.1681 9.946C66.8641 10.27 67.4041 10.732 67.7881 11.332C68.1721 11.932 68.3881 12.658 68.4361 13.51C68.4481 13.738 68.4541 14.008 68.4541 14.32C68.4541 14.62 68.4481 14.89 68.4361 15.13C68.3881 15.97 68.1781 16.696 67.8061 17.308C67.4461 17.908 66.9181 18.37 66.2221 18.694C65.5381 19.018 64.6861 19.18 63.6661 19.18ZM63.6661 16.984C64.2061 16.984 64.5961 16.822 64.8361 16.498C65.0881 16.174 65.2321 15.688 65.2681 15.04C65.2801 14.86 65.2861 14.62 65.2861 14.32C65.2861 14.02 65.2801 13.78 65.2681 13.6C65.2321 12.964 65.0881 12.484 64.8361 12.16C64.5961 11.824 64.2061 11.656 63.6661 11.656C63.1381 11.656 62.7481 11.824 62.4961 12.16C62.2441 12.484 62.1061 12.964 62.0821 13.6C62.0701 13.78 62.0641 14.02 62.0641 14.32C62.0641 14.62 62.0701 14.86 62.0821 15.04C62.1061 15.688 62.2441 16.174 62.4961 16.498C62.7481 16.822 63.1381 16.984 63.6661 16.984Z" fill="black"/>
<path d="M75.5884 19.18C74.4484 19.18 73.4704 18.994 72.6544 18.622C71.8504 18.25 71.2204 17.704 70.7644 16.984C70.3204 16.264 70.0744 15.37 70.0264 14.302C70.0144 13.81 70.0084 13.282 70.0084 12.718C70.0084 12.154 70.0144 11.614 70.0264 11.098C70.0744 10.054 70.3264 9.172 70.7824 8.452C71.2384 7.72 71.8744 7.168 72.6904 6.796C73.5064 6.412 74.4724 6.22 75.5884 6.22C76.3804 6.22 77.1124 6.322 77.7844 6.526C78.4564 6.718 79.0444 7.006 79.5484 7.39C80.0524 7.762 80.4424 8.218 80.7184 8.758C81.0064 9.286 81.1564 9.886 81.1684 10.558C81.1804 10.666 81.1444 10.756 81.0604 10.828C80.9884 10.9 80.8984 10.936 80.7904 10.936H78.3604C78.2044 10.936 78.0844 10.906 78.0004 10.846C77.9164 10.774 77.8444 10.648 77.7844 10.468C77.6164 9.832 77.3404 9.4 76.9564 9.172C76.5844 8.932 76.1224 8.812 75.5704 8.812C74.9104 8.812 74.3884 8.998 74.0044 9.37C73.6204 9.73 73.4104 10.336 73.3744 11.188C73.3384 12.172 73.3384 13.18 73.3744 14.212C73.4104 15.064 73.6204 15.676 74.0044 16.048C74.3884 16.408 74.9104 16.588 75.5704 16.588C76.1224 16.588 76.5904 16.468 76.9744 16.228C77.3584 15.988 77.6284 15.556 77.7844 14.932C77.8324 14.752 77.8984 14.632 77.9824 14.572C78.0784 14.5 78.2044 14.464 78.3604 14.464H80.7904C80.8984 14.464 80.9884 14.5 81.0604 14.572C81.1444 14.644 81.1804 14.734 81.1684 14.842C81.1564 15.514 81.0064 16.12 80.7184 16.66C80.4424 17.188 80.0524 17.644 79.5484 18.028C79.0444 18.4 78.4564 18.688 77.7844 18.892C77.1124 19.084 76.3804 19.18 75.5884 19.18ZM87.2911 19.18C86.2831 19.18 85.4311 19.018 84.7351 18.694C84.0511 18.37 83.5231 17.908 83.1511 17.308C82.7911 16.696 82.5871 15.97 82.5391 15.13C82.5271 14.89 82.5211 14.62 82.5211 14.32C82.5211 14.008 82.5271 13.738 82.5391 13.51C82.5871 12.658 82.8031 11.932 83.1871 11.332C83.5711 10.732 84.1051 10.27 84.7891 9.946C85.4851 9.622 86.3191 9.46 87.2911 9.46C88.2751 9.46 89.1091 9.622 89.7931 9.946C90.4891 10.27 91.0291 10.732 91.4131 11.332C91.7971 11.932 92.0131 12.658 92.0611 13.51C92.0731 13.738 92.0791 14.008 92.0791 14.32C92.0791 14.62 92.0731 14.89 92.0611 15.13C92.0131 15.97 91.8031 16.696 91.4311 17.308C91.0711 17.908 90.5431 18.37 89.8471 18.694C89.1631 19.018 88.3111 19.18 87.2911 19.18ZM87.2911 16.984C87.8311 16.984 88.2211 16.822 88.4611 16.498C88.7131 16.174 88.8571 15.688 88.8931 15.04C88.9051 14.86 88.9111 14.62 88.9111 14.32C88.9111 14.02 88.9051 13.78 88.8931 13.6C88.8571 12.964 88.7131 12.484 88.4611 12.16C88.2211 11.824 87.8311 11.656 87.2911 11.656C86.7631 11.656 86.3731 11.824 86.1211 12.16C85.8691 12.484 85.7311 12.964 85.7071 13.6C85.6951 13.78 85.6891 14.02 85.6891 14.32C85.6891 14.62 85.6951 14.86 85.7071 15.04C85.7311 15.688 85.8691 16.174 86.1211 16.498C86.3731 16.822 86.7631 16.984 87.2911 16.984ZM94.2994 19C94.1674 19 94.0594 18.958 93.9754 18.874C93.8914 18.79 93.8494 18.682 93.8494 18.55V10.09C93.8494 9.97 93.8914 9.868 93.9754 9.784C94.0594 9.688 94.1674 9.64 94.2994 9.64H96.3694C96.5014 9.64 96.6094 9.688 96.6934 9.784C96.7774 9.868 96.8194 9.97 96.8194 10.09V10.81C97.1434 10.438 97.5274 10.15 97.9714 9.946C98.4274 9.742 98.9374 9.64 99.5014 9.64H100.293C100.413 9.64 100.515 9.682 100.599 9.766C100.695 9.85 100.743 9.958 100.743 10.09V11.944C100.743 12.064 100.695 12.172 100.599 12.268C100.515 12.352 100.413 12.394 100.293 12.394H98.5474C98.0554 12.394 97.6714 12.532 97.3954 12.808C97.1314 13.072 96.9994 13.45 96.9994 13.942V18.55C96.9994 18.682 96.9514 18.79 96.8554 18.874C96.7714 18.958 96.6634 19 96.5314 19H94.2994ZM106.381 19.18C105.373 19.18 104.521 19.018 103.825 18.694C103.141 18.37 102.613 17.908 102.241 17.308C101.881 16.696 101.677 15.97 101.629 15.13C101.617 14.89 101.611 14.62 101.611 14.32C101.611 14.008 101.617 13.738 101.629 13.51C101.677 12.658 101.893 11.932 102.277 11.332C102.661 10.732 103.195 10.27 103.879 9.946C104.575 9.622 105.409 9.46 106.381 9.46C107.365 9.46 108.199 9.622 108.883 9.946C109.579 10.27 110.119 10.732 110.503 11.332C110.887 11.932 111.103 12.658 111.151 13.51C111.163 13.738 111.169 14.008 111.169 14.32C111.169 14.62 111.163 14.89 111.151 15.13C111.103 15.97 110.893 16.696 110.521 17.308C110.161 17.908 109.633 18.37 108.937 18.694C108.253 19.018 107.401 19.18 106.381 19.18ZM106.381 16.984C106.921 16.984 107.311 16.822 107.551 16.498C107.803 16.174 107.947 15.688 107.983 15.04C107.995 14.86 108.001 14.62 108.001 14.32C108.001 14.02 107.995 13.78 107.983 13.6C107.947 12.964 107.803 12.484 107.551 12.16C107.311 11.824 106.921 11.656 106.381 11.656C105.853 11.656 105.463 11.824 105.211 12.16C104.959 12.484 104.821 12.964 104.797 13.6C104.785 13.78 104.779 14.02 104.779 14.32C104.779 14.62 104.785 14.86 104.797 15.04C104.821 15.688 104.959 16.174 105.211 16.498C105.463 16.822 105.853 16.984 106.381 16.984ZM113.389 19C113.257 19 113.149 18.958 113.065 18.874C112.981 18.79 112.939 18.682 112.939 18.55V10.09C112.939 9.958 112.981 9.85 113.065 9.766C113.149 9.682 113.257 9.64 113.389 9.64H115.459C115.591 9.64 115.699 9.682 115.783 9.766C115.867 9.85 115.909 9.958 115.909 10.09V10.774C116.221 10.402 116.629 10.09 117.133 9.838C117.637 9.586 118.231 9.46 118.915 9.46C119.611 9.46 120.223 9.616 120.751 9.928C121.291 10.24 121.711 10.702 122.011 11.314C122.323 11.914 122.479 12.652 122.479 13.528V18.55C122.479 18.682 122.431 18.79 122.335 18.874C122.251 18.958 122.149 19 122.029 19H119.761C119.641 19 119.533 18.958 119.437 18.874C119.353 18.79 119.311 18.682 119.311 18.55V13.636C119.311 13.072 119.173 12.64 118.897 12.34C118.633 12.028 118.237 11.872 117.709 11.872C117.217 11.872 116.821 12.028 116.521 12.34C116.233 12.64 116.089 13.072 116.089 13.636V18.55C116.089 18.682 116.041 18.79 115.945 18.874C115.861 18.958 115.759 19 115.639 19H113.389ZM127.296 19.18C126.648 19.18 126.066 19.06 125.55 18.82C125.046 18.568 124.644 18.232 124.344 17.812C124.044 17.392 123.894 16.918 123.894 16.39C123.894 15.538 124.242 14.866 124.938 14.374C125.634 13.87 126.558 13.528 127.71 13.348L129.96 13.006V12.754C129.96 12.322 129.87 11.992 129.69 11.764C129.51 11.536 129.18 11.422 128.7 11.422C128.364 11.422 128.088 11.488 127.872 11.62C127.668 11.752 127.506 11.932 127.386 12.16C127.278 12.316 127.128 12.394 126.936 12.394H124.92C124.788 12.394 124.686 12.358 124.614 12.286C124.542 12.202 124.512 12.106 124.524 11.998C124.524 11.782 124.602 11.536 124.758 11.26C124.926 10.972 125.178 10.69 125.514 10.414C125.85 10.138 126.282 9.91 126.81 9.73C127.338 9.55 127.974 9.46 128.718 9.46C129.498 9.46 130.164 9.55 130.716 9.73C131.268 9.91 131.712 10.162 132.048 10.486C132.396 10.81 132.654 11.194 132.822 11.638C132.99 12.07 133.074 12.55 133.074 13.078V18.55C133.074 18.682 133.026 18.79 132.93 18.874C132.846 18.958 132.744 19 132.624 19H130.536C130.404 19 130.296 18.958 130.212 18.874C130.128 18.79 130.086 18.682 130.086 18.55V17.92C129.93 18.148 129.72 18.358 129.456 18.55C129.192 18.742 128.88 18.892 128.52 19C128.172 19.12 127.764 19.18 127.296 19.18ZM128.142 17.128C128.49 17.128 128.802 17.056 129.078 16.912C129.366 16.756 129.588 16.522 129.744 16.21C129.912 15.886 129.996 15.484 129.996 15.004V14.752L128.466 15.022C127.902 15.118 127.488 15.268 127.224 15.472C126.972 15.664 126.846 15.892 126.846 16.156C126.846 16.36 126.906 16.534 127.026 16.678C127.146 16.822 127.302 16.936 127.494 17.02C127.686 17.092 127.902 17.128 128.142 17.128Z" fill="#EC5863"/>
</svg>
